<svg xmlns="http://www.w3.org/2000/svg" width="12.313" height="12.313" viewBox="0 0 12.313 12.313">
  <path id="Path_12192" data-name="Path 12192" d="M180.756,109.42a5.279,5.279,0,0,0-1.557,2.436c.022,1.765,1.686,3.95,3.686,5.946s4.293,3.947,5.967,3.693a5.318,5.318,0,0,0,2.453-1.568.846.846,0,0,0-.005-1.115l-1.7-1.7a1.128,1.128,0,0,0-1.238-.1l-1.146.839c-.612.521-1.9-.758-2.757-1.612s-2.156-2.01-1.607-2.758l.838-1.141a1.123,1.123,0,0,0-.085-1.218l-1.7-1.694a.855.855,0,0,0-1.15-.012Z" transform="translate(-179.199 -109.204)" fill="#fff" opacity="0.5"/>
</svg>
