<svg xmlns="http://www.w3.org/2000/svg" width="116.563" height="66.066" viewBox="0 0 116.563 66.066">
  <g id="Group_1761" data-name="Group 1761" transform="translate(-1219.734 -314.316)">
    <path id="Path_12177" data-name="Path 12177" d="M1222.856,378h1c3.188,0,6.642-.6,6.642-4.571,0-3.91-3.719-4.373-6.807-4.373h-.83Zm0,13.253h-3.122V366.27h3.587c7.7,0,10.1,2.651,10.1,7.222,0,5.268-4.018,7.289-8.767,7.289h-1.793Z" transform="translate(0 -11.896)" fill="#1e4243"/>
    <path id="Path_12178" data-name="Path 12178" d="M1246.36,371.72l-4.45,10.105h8.9Zm-5.745,12.954-2.856,6.262h-3.354l11.955-26.04,11.955,26.04h-3.354l-2.856-6.262Z" transform="translate(-3.359 -11.581)" fill="#1e4243"/>
    <path id="Path_12179" data-name="Path 12179" d="M1268.981,364.724l18.8,19.646V365.916h3.121v26.008l-18.8-19.647V390.9h-3.121Z" transform="translate(-11.276 -11.542)" fill="#1e4243"/>
    <path id="Path_12180" data-name="Path 12180" d="M1311.194,391.251h-3.122V369.119h-5.945V366.27h15.01v2.849h-5.944Z" transform="translate(-18.866 -11.896)" fill="#1e4243"/>
    <path id="Path_12181" data-name="Path 12181" d="M1329.628,378.1h1c3.188,0,6.642-.6,6.642-4.571,0-3.91-3.719-4.473-6.807-4.473h-.83Zm12.453,13.153H1338.3l-7.373-10.569h-1.295v10.569h-3.122V366.27h3.786c2.225,0,4.616.033,6.609,1.16a6.912,6.912,0,0,1,3.288,5.964,6.806,6.806,0,0,1-6.011,6.99Z" transform="translate(-24.447 -11.896)" fill="#1e4243"/>
    <path id="Path_12182" data-name="Path 12182" d="M1345.673,366.27h3.587l6.144,10.668,6.143-10.668h3.587l-8.169,14.114v10.867h-3.122V380.384Z" transform="translate(-28.836 -11.896)" fill="#1e4243"/>
    <path id="Path_12183" data-name="Path 12183" d="M1232.2,320.271a4.291,4.291,0,0,0-4.018-2.352c-1.993,0-4.184,1.359-4.184,3.545,0,1.955,1.926,2.982,3.487,3.578l1.793.7c3.553,1.391,6.21,3.346,6.21,7.521a7.71,7.71,0,0,1-8,7.786,7.8,7.8,0,0,1-7.737-6.991l3.154-.662a4.733,4.733,0,1,0,9.464-.133c0-2.684-2.158-3.844-4.317-4.738l-1.726-.729c-2.856-1.226-5.447-2.85-5.447-6.328,0-4.042,3.587-6.46,7.373-6.46a7.146,7.146,0,0,1,6.442,3.777Z" transform="translate(-0.002 -0.157)" fill="#1e4243"/>
    <path id="Path_12184" data-name="Path 12184" d="M1267.148,328.023a10,10,0,1,0-19.991,0,10,10,0,1,0,19.991,0m3.121,0a13.118,13.118,0,0,1-26.234,0,13.118,13.118,0,0,1,26.234,0" transform="translate(-5.564 -0.157)" fill="#1e4243"/>
    <path id="Path_12185" data-name="Path 12185" d="M1301.52,320.3a10.129,10.129,0,0,0-6.608-2.452,10.172,10.172,0,1,0,6.608,17.758v3.678a13.561,13.561,0,0,1-6.575,1.756,12.947,12.947,0,0,1-13.051-12.888A13.146,13.146,0,0,1,1295.21,315a12.1,12.1,0,0,1,6.309,1.689Z" transform="translate(-14.233 -0.157)" fill="#1e4243"/>
    <rect id="Rectangle_589" data-name="Rectangle 589" width="3.122" height="24.981" transform="translate(1291.757 315.376)" fill="#1e4243"/>
    <path id="Path_12186" data-name="Path 12186" d="M1334.12,321.14l-4.45,10.1h8.9Zm-5.745,12.954-2.856,6.262h-3.354l11.955-26.04,11.955,26.04h-3.354l-2.856-6.262Z" transform="translate(-23.454 0)" fill="#1e4243"/>
    <path id="Path_12187" data-name="Path 12187" d="M1360.113,337.821h7.6v2.849h-10.726V315.69h3.121Z" transform="translate(-31.428 -0.315)" fill="#1e4243"/>
  </g>
</svg>
